HIERARCHY
ROOT Hips
{
	OFFSET 0.000000 71.427986 0.000000
	CHANNELS 6 Xposition Yposition Zposition Xrotation Yrotation Zrotation
	JOINT Pelvis
	{
		OFFSET 0.000000 0.000000 0.000000
		CHANNELS 3 Xrotation Yrotation Zrotation
		JOINT LeftUpLeg
		{
			OFFSET 6.797100 -2.508499 -1.318700
			CHANNELS 3 Xrotation Yrotation Zrotation
			JOINT LeftLeg
			{
				OFFSET 0.069008 -29.241863 0.690200
				CHANNELS 3 Xrotation Yrotation Zrotation
				JOINT LeftFoot
				{
					OFFSET -0.069008 -29.568123 -0.266800
					CHANNELS 3 Xrotation Yrotation Zrotation
					JOINT LeftToeBase
					{
						OFFSET 3.145500 -8.631000 16.059900
						CHANNELS 3 Xrotation Yrotation Zrotation
						End Site
						{
							OFFSET 0.000000 18.501587 0.000000
						}
					}
				}
			}
			JOINT Left_ShortSleeve
			{
				OFFSET 0.265923 -10.480953 1.153800
				CHANNELS 3 Xrotation Yrotation Zrotation
				End Site
				{
					OFFSET 1.725763 19.823879 0.000000
				}
			}
		}
		JOINT RightUpLeg
		{
			OFFSET -6.797100 -2.508499 -1.318700
			CHANNELS 3 Xrotation Yrotation Zrotation
			JOINT RightLeg
			{
				OFFSET -0.082453 -29.241932 0.688000
				CHANNELS 3 Xrotation Yrotation Zrotation
				JOINT RightFoot
				{
					OFFSET 0.082453 -29.568058 -0.264600
					CHANNELS 3 Xrotation Yrotation Zrotation
					JOINT RightToeBase
					{
						OFFSET -3.115300 -8.682800 16.113400
						CHANNELS 3 Xrotation Yrotation Zrotation
						End Site
						{
							OFFSET 0.000000 18.567114 0.000000
						}
					}
				}
			}
			JOINT Right_ShortSleeve
			{
				OFFSET -0.265923 -10.480953 1.153800
				CHANNELS 3 Xrotation Yrotation Zrotation
				End Site
				{
					OFFSET -1.725766 19.823910 0.000000
				}
			}
		}
	}
	JOINT Spine
	{
		OFFSET 0.000000 13.368103 0.470500
		CHANNELS 3 Xrotation Yrotation Zrotation
		JOINT Spine1
		{
			OFFSET 0.147000 13.837402 0.538800
			CHANNELS 3 Xrotation Yrotation Zrotation
			JOINT Spine2
			{
				OFFSET 0.168000 16.242897 -1.435500
				CHANNELS 3 Xrotation Yrotation Zrotation
				JOINT Neck
				{
					OFFSET 0.217200 18.631500 -1.679100
					CHANNELS 3 Xrotation Yrotation Zrotation
					JOINT Head
					{
						OFFSET 0.000000 6.599396 1.385900
						CHANNELS 3 Xrotation Yrotation Zrotation
						JOINT Hat
						{
							OFFSET -0.532200 27.220596 -10.096100
							CHANNELS 3 Xrotation Yrotation Zrotation
							End Site
							{
								OFFSET 0.000000 22.029861 0.000000
							}
						}
						JOINT HairD
						{
							OFFSET -10.777400 17.437393 -1.325900
							CHANNELS 3 Xrotation Yrotation Zrotation
							JOINT HairD1
							{
								OFFSET -3.290299 -11.051193 1.062200
								CHANNELS 3 Xrotation Yrotation Zrotation
								End Site
								{
									OFFSET 0.000000 11.579437 0.000000
								}
							}
						}
						JOINT HairB
						{
							OFFSET -10.777400 17.437393 1.467900
							CHANNELS 3 Xrotation Yrotation Zrotation
							JOINT HairB1
							{
								OFFSET -1.561200 -12.956299 3.590200
								CHANNELS 3 Xrotation Yrotation Zrotation
								End Site
								{
									OFFSET 0.000000 13.534866 0.000000
								}
							}
						}
						JOINT HairA
						{
							OFFSET 9.713100 17.437393 1.467900
							CHANNELS 3 Xrotation Yrotation Zrotation
							JOINT HairA1
							{
								OFFSET 1.561200 -12.956299 3.590200
								CHANNELS 3 Xrotation Yrotation Zrotation
								End Site
								{
									OFFSET 0.000000 13.534866 0.000000
								}
							}
						}
						JOINT HairC
						{
							OFFSET 9.713100 17.437393 -1.325900
							CHANNELS 3 Xrotation Yrotation Zrotation
							JOINT HairC1
							{
								OFFSET 3.290300 -11.051193 1.062200
								CHANNELS 3 Xrotation Yrotation Zrotation
								End Site
								{
									OFFSET 0.000000 11.579437 0.000000
								}
							}
						}
					}
				}
				JOINT LeftShoulder
				{
					OFFSET 5.101800 15.108002 -2.763700
					CHANNELS 3 Xrotation Yrotation Zrotation
					JOINT LeftArm
					{
						OFFSET 9.825497 2.506317 -1.597400
						CHANNELS 3 Xrotation Yrotation Zrotation
						JOINT LeftForeArm
						{
							OFFSET 21.966244 0.000000 0.000000
							CHANNELS 3 Xrotation Yrotation Zrotation
							JOINT LeftHand
							{
								OFFSET 33.879036 0.000000 0.000000
								CHANNELS 3 Xrotation Yrotation Zrotation
								JOINT LeftHandThumb1
								{
									OFFSET 6.715286 -2.359680 3.363841
									CHANNELS 3 Xrotation Yrotation Zrotation
									JOINT LeftHandThumb2
									{
										OFFSET 2.507072 -1.447464 1.447461
										CHANNELS 3 Xrotation Yrotation Zrotation
										JOINT LeftHandThumb3
										{
											OFFSET 2.898338 -1.673355 1.673357
											CHANNELS 3 Xrotation Yrotation Zrotation
											End Site
											{
												OFFSET -0.295959 3.727692 -0.131651
											}
										}
									}
								}
								JOINT LeftHandIndex1
								{
									OFFSET 14.190811 -0.254547 3.840278
									CHANNELS 3 Xrotation Yrotation Zrotation
									JOINT LeftHandIndex2
									{
										OFFSET 3.551727 0.000000 -0.000000
										CHANNELS 3 Xrotation Yrotation Zrotation
										JOINT LeftHandIndex3
										{
											OFFSET 2.894196 0.000000 0.000000
											CHANNELS 3 Xrotation Yrotation Zrotation
											End Site
											{
												OFFSET -1.000603 2.690872 0.366626
											}
										}
									}
								}
								JOINT LeftHandMiddle1
								{
									OFFSET 13.776489 0.000000 0.000000
									CHANNELS 3 Xrotation Yrotation Zrotation
									JOINT LeftHandMiddle2
									{
										OFFSET 3.438232 0.000000 0.000000
										CHANNELS 3 Xrotation Yrotation Zrotation
										JOINT LeftHandMiddle3
										{
											OFFSET 3.691551 0.000000 0.000000
											CHANNELS 3 Xrotation Yrotation Zrotation
											End Site
											{
												OFFSET -1.082298 3.499527 0.457670
											}
										}
									}
								}
								JOINT LeftHandRing1
								{
									OFFSET 13.966164 -0.268127 -3.067488
									CHANNELS 3 Xrotation Yrotation Zrotation
									JOINT LeftHandRing2
									{
										OFFSET 3.162567 0.000000 0.000000
										CHANNELS 3 Xrotation Yrotation Zrotation
										JOINT LeftHandRing3
										{
											OFFSET 3.324348 0.000000 0.000000
											CHANNELS 3 Xrotation Yrotation Zrotation
											End Site
											{
												OFFSET -0.861900 3.184998 0.405154
											}
										}
									}
								}
								JOINT LeftHandPinky1
								{
									OFFSET 13.131393 -0.168503 -5.746925
									CHANNELS 3 Xrotation Yrotation Zrotation
									JOINT LeftHandPinky2
									{
										OFFSET 2.849182 0.000000 0.000000
										CHANNELS 3 Xrotation Yrotation Zrotation
										JOINT LeftHandPinky3
										{
											OFFSET 2.805038 0.000000 0.000000
											CHANNELS 3 Xrotation Yrotation Zrotation
											End Site
											{
												OFFSET -0.882500 2.642609 0.325652
											}
										}
									}
								}
							}
							JOINT Left_Sleeve
							{
								OFFSET 6.592125 -0.646545 0.805568
								CHANNELS 3 Xrotation Yrotation Zrotation
								End Site
								{
									OFFSET -0.000179 20.275787 -0.000000
								}
							}
						}
					}
				}
				JOINT RightShoulder
				{
					OFFSET -5.731700 15.108002 -2.763700
					CHANNELS 3 Xrotation Yrotation Zrotation
					JOINT RightArm
					{
						OFFSET -9.825497 2.506317 -1.597400
						CHANNELS 3 Xrotation Yrotation Zrotation
						JOINT RightForeArm
						{
							OFFSET -21.966242 0.000000 0.000000
							CHANNELS 3 Xrotation Yrotation Zrotation
							JOINT RightHand
							{
								OFFSET -33.879032 0.000000 0.000000
								CHANNELS 3 Xrotation Yrotation Zrotation
								JOINT RightHandThumb1
								{
									OFFSET -6.715286 -2.359680 3.363841
									CHANNELS 3 Xrotation Yrotation Zrotation
									JOINT RightHandThumb2
									{
										OFFSET -2.507072 -1.447464 1.447461
										CHANNELS 3 Xrotation Yrotation Zrotation
										JOINT RightHandThumb3
										{
											OFFSET -2.898338 -1.673355 1.673357
											CHANNELS 3 Xrotation Yrotation Zrotation
											End Site
											{
												OFFSET 0.295959 3.727692 -0.131651
											}
										}
									}
								}
								JOINT RightHandIndex1
								{
									OFFSET -14.190811 -0.254547 3.840278
									CHANNELS 3 Xrotation Yrotation Zrotation
									JOINT RightHandIndex2
									{
										OFFSET -3.551727 0.000000 -0.000000
										CHANNELS 3 Xrotation Yrotation Zrotation
										JOINT RightHandIndex3
										{
											OFFSET -2.894196 0.000000 0.000000
											CHANNELS 3 Xrotation Yrotation Zrotation
											End Site
											{
												OFFSET 1.000603 2.690872 0.366626
											}
										}
									}
								}
								JOINT RightHandMiddle1
								{
									OFFSET -13.776489 0.000000 0.000000
									CHANNELS 3 Xrotation Yrotation Zrotation
									JOINT RightHandMiddle2
									{
										OFFSET -3.438232 0.000000 0.000000
										CHANNELS 3 Xrotation Yrotation Zrotation
										JOINT RightHandMiddle3
										{
											OFFSET -3.691551 0.000000 0.000000
											CHANNELS 3 Xrotation Yrotation Zrotation
											End Site
											{
												OFFSET 1.082298 3.499527 0.457670
											}
										}
									}
								}
								JOINT RightHandRing1
								{
									OFFSET -13.966164 -0.268127 -3.067488
									CHANNELS 3 Xrotation Yrotation Zrotation
									JOINT RightHandRing2
									{
										OFFSET -3.162567 0.000000 0.000000
										CHANNELS 3 Xrotation Yrotation Zrotation
										JOINT RightHandRing3
										{
											OFFSET -3.324348 0.000000 0.000000
											CHANNELS 3 Xrotation Yrotation Zrotation
											End Site
											{
												OFFSET 0.861900 3.184998 0.405154
											}
										}
									}
								}
								JOINT RightHandPinky1
								{
									OFFSET -13.131393 -0.168503 -5.746925
									CHANNELS 3 Xrotation Yrotation Zrotation
									JOINT RightHandPinky2
									{
										OFFSET -2.849182 0.000000 0.000000
										CHANNELS 3 Xrotation Yrotation Zrotation
										JOINT RightHandPinky3
										{
											OFFSET -2.805038 0.000000 0.000000
											CHANNELS 3 Xrotation Yrotation Zrotation
											End Site
											{
												OFFSET 0.882500 2.642609 0.325652
											}
										}
									}
								}
							}
							JOINT Right_Sleeve
							{
								OFFSET -6.592125 -0.646545 0.805568
								CHANNELS 3 Xrotation Yrotation Zrotation
								End Site
								{
									OFFSET 0.000179 20.275787 -0.000000
								}
							}
						}
					}
				}
				JOINT Bind_Right_JacketString
				{
					OFFSET -3.534800 11.969597 7.200700
					CHANNELS 3 Xrotation Yrotation Zrotation
					JOINT Bind_Right_JacketString1
					{
						OFFSET -0.319900 -6.102600 2.794100
						CHANNELS 3 Xrotation Yrotation Zrotation
						End Site
						{
							OFFSET 0.000000 6.719452 0.000000
						}
					}
				}
				JOINT Bind_Left_JacketString
				{
					OFFSET 2.904800 11.969597 7.200700
					CHANNELS 3 Xrotation Yrotation Zrotation
					JOINT Bind_Left_JacketString1
					{
						OFFSET 0.364800 -5.904503 3.186800
						CHANNELS 3 Xrotation Yrotation Zrotation
						End Site
						{
							OFFSET 0.000000 6.719513 0.000000
						}
					}
				}
				JOINT HairE
				{
					OFFSET 5.915200 17.612701 -11.592200
					CHANNELS 3 Xrotation Yrotation Zrotation
					JOINT HairE1
					{
						OFFSET 0.289200 -7.171898 -1.284500
						CHANNELS 3 Xrotation Yrotation Zrotation
						End Site
						{
							OFFSET 0.000000 7.291756 0.000000
						}
					}
				}
				JOINT HairF
				{
					OFFSET -0.864800 17.612701 -11.592200
					CHANNELS 3 Xrotation Yrotation Zrotation
					JOINT HairF1
					{
						OFFSET 0.000000 -14.087097 -2.127501
						CHANNELS 3 Xrotation Yrotation Zrotation
						End Site
						{
							OFFSET 0.000000 14.246841 0.000000
						}
					}
				}
				JOINT HairG
				{
					OFFSET -8.087700 17.612701 -11.592200
					CHANNELS 3 Xrotation Yrotation Zrotation
					JOINT HairG1
					{
						OFFSET -0.293600 -6.081398 -0.910100
						CHANNELS 3 Xrotation Yrotation Zrotation
						End Site
						{
							OFFSET 0.000000 6.156120 0.000000
						}
					}
				}
			}
		}
	}
	JOINT Pouch
	{
		OFFSET 0.000000 4.394501 10.847300
		CHANNELS 3 Xrotation Yrotation Zrotation
		End Site
		{
			OFFSET 0.000000 21.880577 0.000000
		}
	}
	JOINT Bag
	{
		OFFSET -13.229000 4.813004 -0.593300
		CHANNELS 3 Xrotation Yrotation Zrotation
		End Site
		{
			OFFSET 0.000000 21.880577 0.000000
		}
	}
	JOINT OccupyGuyFacialAnim_Joint
	{
		OFFSET 1.000000 -70.206398 -1.655000
		CHANNELS 3 Xrotation Yrotation Zrotation
		End Site
		{
			OFFSET 0.000000 21.880577 0.000000
		}
	}
}
MOTION
Frames: 4
Frame Time: 0.016667
-4.530490 76.509850 130.661987 19.865091 8.864910 -0.590543 0.000001 0.000000 0.000000 -20.233954 11.107815 10.363451 51.858208 19.216625 -0.588265 12.370484 -0.988623 4.591587 -0.000001 0.000003 0.000001 -0.000000 0.000001 -0.000000 -54.548018 -28.447477 -10.926517 41.589428 2.656157 -12.823523 25.557490 1.984674 2.210305 -0.000003 -0.000001 -0.000000 0.000000 -0.000001 -0.000000 -2.300483 -0.620099 -0.251679 -4.594414 -1.061329 0.101277 -4.594413 -1.061324 0.101277 -4.837208 3.021061 -5.623374 -32.648267 -0.269691 4.329763 -0.000002 -0.000001 -0.000000 -0.000002 -0.000001 -0.000000 -0.000002 -0.000001 -0.000000 -0.000002 -0.000001 -0.000000 -0.000002 0.000000 0.000001 -0.000002 -0.000001 -0.000000 -0.000002 0.000000 0.000001 -0.000002 -0.000001 -0.000000 -0.000002 -0.000001 -0.000000 10.044626 0.256260 32.051226 -48.561723 -10.210824 11.799413 -38.609891 -41.548509 -5.423225 -8.226035 -2.522758 4.213893 -23.472543 9.007627 3.988060 -11.828222 8.162175 13.621976 0.000001 -0.000002 -0.000002 0.517250 -9.570566 -64.785492 -8.375108 -2.932962 -78.721591 0.000002 0.000000 -0.000002 -5.938098 -5.207423 -62.769630 -4.744679 -4.396651 -66.090099 0.000001 0.000000 0.000001 -10.844903 5.489473 -65.803880 -0.072857 -6.647473 -74.360037 -0.000000 0.000002 -0.000005 -15.557593 3.779189 -61.887764 0.800039 -8.229587 -69.702996 -0.000001 0.000001 0.000003 0.000000 -0.000000 0.000001 -8.323182 -24.135445 -40.312681 -89.460383 26.675432 38.968268 -28.899586 50.290881 -7.128692 27.282140 -4.258683 14.891576 -17.327353 6.468831 -26.575877 3.068484 -20.322342 1.170429 -0.000000 0.000000 -0.000000 -7.162281 5.305810 74.913132 -5.538940 0.850748 81.608029 0.000001 0.000000 -0.000003 -11.692860 2.849382 77.860284 -5.590896 1.103051 82.945373 -0.000001 -0.000000 -0.000001 -13.276898 -6.839385 73.034885 -0.147259 7.076598 77.106511 0.000002 -0.000001 -0.000003 -17.725131 -11.413774 72.297641 1.238873 11.805305 72.406016 -0.000001 0.000000 0.000002 -0.000000 -0.000000 0.000001 0.000000 -0.000000 -0.000000 0.000000 -0.000000 -0.000000 0.000000 -0.000000 0.000000 0.000000 -0.000000 0.000000 0.000000 -0.000000 -0.000000 0.000000 -0.000000 -0.000000 0.000000 -0.000000 0.000000 0.000000 -0.000000 0.000000 0.000000 -0.000000 -0.000000 0.000000 -0.000000 -0.000000 0.000001 0.000000 0.000000 0.000001 0.000000 0.000000 0.000001 0.000000 0.000000 
-4.555182 75.204422 133.185272 17.727536 9.500622 -0.759552 -0.000000 0.000000 0.000000 -19.269920 9.275657 10.008765 50.768072 20.991364 -1.928505 11.675546 -1.433793 4.320643 0.000000 -0.000000 -0.000001 0.000000 0.000002 0.000000 -55.707060 -27.966273 -11.083238 43.704997 2.183370 -13.192593 24.627743 1.107699 0.969988 -0.000000 0.000001 0.000000 0.000000 0.000000 0.000000 -2.117379 -0.713122 -0.253013 -4.226091 -1.236034 0.160241 -4.226096 -1.236037 0.160241 -3.390466 3.136788 -5.040333 -32.061396 -0.495305 4.132349 0.000003 0.000000 0.000000 0.000003 0.000000 0.000000 0.000003 0.000000 0.000000 0.000003 0.000000 0.000000 0.000003 -0.000000 0.000001 0.000003 0.000000 0.000000 0.000003 -0.000000 0.000001 0.000003 0.000000 0.000000 0.000003 0.000000 0.000000 9.560694 1.178734 31.958602 -47.982144 -11.494727 12.850401 -37.736198 -39.139573 -4.480684 -9.326637 -3.180909 7.039126 -23.461923 9.089806 3.969062 -11.828222 8.162138 13.621988 0.000000 0.000002 -0.000000 0.903542 -9.378149 -63.393363 -8.389073 -2.928327 -78.861214 0.000001 0.000002 0.000002 -5.628297 -5.175333 -61.630006 -4.775312 -4.405084 -66.429067 -0.000001 -0.000000 0.000006 -10.813713 5.370614 -64.788463 -0.084333 -6.654552 -74.482796 -0.000004 0.000002 -0.000000 -15.534555 3.805876 -61.859903 0.782684 -8.240918 -69.919711 -0.000003 0.000000 0.000001 -0.000000 0.000000 -0.000001 -8.892188 -24.277771 -41.378229 -86.632699 27.564753 36.099401 -30.016632 48.103588 -7.287890 26.156954 -4.467115 12.106695 -17.327353 6.468839 -26.575902 3.068491 -20.322340 1.170440 0.000000 -0.000001 -0.000001 -7.160160 4.909966 76.768854 -5.512936 0.851725 81.188526 -0.000001 0.000000 0.000002 -11.756410 2.715985 78.851269 -5.590527 1.102810 82.959928 -0.000001 -0.000000 0.000001 -13.231576 -7.033008 74.164448 -0.159604 7.085934 77.218820 0.000002 -0.000002 -0.000001 -17.608883 -11.756222 74.042864 1.242300 11.802458 72.382964 0.000001 0.000000 0.000001 -0.000000 -0.000001 -0.000001 0.000001 0.000000 0.000000 0.000001 -0.000000 0.000000 0.000001 0.000000 0.000000 0.000001 0.000000 0.000000 0.000001 0.000000 0.000000 0.000001 -0.000000 0.000000 0.000001 0.000000 0.000000 0.000001 0.000000 0.000000 0.000001 0.000000 0.000000 0.000001 -0.000000 0.000000 -0.000000 0.000000 0.000000 -0.000000 0.000000 0.000000 -0.000000 0.000000 0.000000 
-4.553002 73.862579 135.600464 15.551244 10.173056 -0.942612 -0.000001 -0.000000 0.000000 -19.329492 6.979446 9.501667 51.082944 22.203504 -3.196245 10.246879 -1.895387 3.344513 -0.000002 -0.000000 -0.000001 -0.000000 -0.000002 0.000000 -56.860112 -27.497088 -11.154693 46.427945 1.606825 -13.918731 23.266017 0.216410 0.082588 -0.000004 0.000000 -0.000001 -0.000007 0.000002 -0.000002 -1.885040 -0.832301 -0.226676 -3.758560 -1.458367 0.264353 -3.758559 -1.458363 0.264352 -2.312997 3.118227 -4.492907 -31.180042 -0.574889 3.975778 0.000000 0.000000 -0.000000 0.000000 0.000000 -0.000000 0.000000 0.000000 -0.000000 0.000000 0.000000 0.000000 0.000000 0.000000 0.000000 0.000000 0.000000 0.000000 0.000000 0.000000 0.000000 0.000000 0.000000 -0.000000 0.000000 0.000000 -0.000000 9.718427 1.273660 32.721913 -47.199838 -10.995444 14.448376 -37.509350 -36.402962 -3.708624 -10.609591 -4.159270 8.444630 -23.450760 9.175995 3.949034 -11.828232 8.162148 13.621999 0.000000 0.000001 -0.000000 1.276613 -9.117637 -62.457067 -8.382900 -2.930022 -78.798417 0.000001 0.000000 -0.000002 -5.280020 -5.045769 -60.690807 -4.795412 -4.410529 -66.652442 -0.000000 0.000001 0.000006 -10.792182 5.278041 -63.907020 -0.092886 -6.659765 -74.573508 -0.000001 -0.000000 -0.000003 -15.475103 3.968989 -62.080628 0.761121 -8.254695 -70.188813 -0.000001 -0.000001 -0.000001 -0.000000 0.000000 0.000000 -8.350553 -23.530586 -42.083200 -83.150108 28.065862 30.864611 -31.664354 45.607444 -6.457792 24.627302 -4.700906 9.780979 -17.327355 6.468825 -26.575904 3.068477 -20.322325 1.170418 -0.000002 -0.000002 0.000000 -7.022614 4.477198 78.237659 -5.477299 0.852872 80.617583 0.000000 -0.000000 0.000000 -11.748783 2.655329 79.261620 -5.590952 1.102356 83.000431 0.000002 0.000000 -0.000001 -13.176025 -7.192320 75.017402 -0.177987 7.099733 77.385388 0.000001 0.000001 0.000000 -17.476402 -12.103216 75.593993 1.245860 11.799151 72.352139 -0.000001 0.000002 0.000002 0.000000 -0.000000 0.000000 0.000000 0.000000 0.000000 0.000000 0.000000 0.000000 0.000000 0.000000 0.000000 0.000000 0.000000 0.000000 0.000000 0.000000 0.000000 0.000000 0.000000 -0.000000 0.000000 0.000000 0.000000 0.000000 0.000000 0.000000 0.000000 0.000000 0.000000 0.000000 0.000000 -0.000000 -0.000001 -0.000000 0.000000 -0.000001 -0.000000 0.000000 -0.000001 -0.000000 0.000000 
-4.549163 73.072083 137.880447 13.422865 10.868099 -1.161091 0.000000 0.000001 -0.000000 -19.958991 6.239947 8.744835 50.019196 21.773111 -2.951763 9.205434 -2.223757 2.338318 -0.000002 -0.000003 0.000001 -0.000001 -0.000001 -0.000000 -56.615814 -27.406701 -11.256388 46.872460 0.808061 -13.806851 22.763975 0.072870 -1.496842 0.000000 -0.000001 0.000000 -0.000001 -0.000000 0.000001 -1.578665 -0.975976 -0.135843 -3.141672 -1.730180 0.476075 -3.141673 -1.730181 0.476075 -2.080885 2.816535 -4.488245 -29.703581 -0.759592 4.181480 -0.000002 -0.000000 -0.000000 -0.000002 -0.000000 -0.000000 -0.000002 -0.000000 -0.000000 -0.000002 -0.000000 -0.000000 -0.000002 0.000001 -0.000000 -0.000002 -0.000000 -0.000000 -0.000002 0.000001 -0.000000 -0.000002 -0.000000 -0.000000 -0.000002 -0.000000 -0.000000 10.358788 0.430483 33.938664 -46.303051 -6.882811 15.495930 -38.881849 -37.359516 -3.729793 -11.776478 -3.759843 8.715735 -23.439379 9.263832 3.928500 -11.828215 8.162111 13.621968 -0.000003 0.000002 0.000000 1.545928 -8.908075 -61.901089 -8.376391 -2.931828 -78.732711 0.000001 0.000000 -0.000002 -5.021030 -4.932616 -60.084805 -4.812814 -4.415214 -66.846870 0.000001 -0.000001 -0.000001 -10.776120 5.182447 -63.138972 -0.100342 -6.664245 -74.651324 0.000000 0.000000 -0.000004 -15.429570 4.090056 -62.244497 0.743161 -8.265973 -70.408486 -0.000002 -0.000000 0.000003 0.000002 0.000000 -0.000000 -7.764605 -22.718975 -42.791104 -79.909764 26.708360 26.192532 -32.094738 45.832820 -5.888927 22.708559 -5.865440 8.746415 -17.327345 6.468864 -26.575894 3.068463 -20.322270 1.170428 0.000000 -0.000001 0.000003 -6.865573 4.152963 79.210291 -5.445865 0.853614 80.114745 -0.000000 -0.000000 0.000000 -11.662137 2.647374 79.130030 -5.594067 1.101158 83.123962 0.000001 0.000000 0.000001 -13.125762 -7.256898 75.195014 -0.202085 7.117637 77.603428 0.000002 -0.000001 0.000001 -17.379292 -12.303822 76.241447 1.231305 11.811442 72.469379 0.000001 0.000002 0.000001 0.000002 0.000000 0.000000 0.000000 0.000001 0.000000 0.000000 0.000001 0.000000 0.000000 0.000001 0.000000 0.000000 0.000001 0.000000 0.000000 0.000001 0.000000 0.000000 0.000001 0.000000 0.000000 0.000001 0.000000 0.000000 0.000001 0.000000 0.000000 0.000001 0.000000 0.000000 0.000001 0.000000 0.000000 0.000001 -0.000000 0.000000 0.000001 -0.000000 0.000000 0.000001 -0.000000 
